<svg xmlns="http://www.w3.org/2000/svg" viewBox="0 0 24 24" width="28" height="28" fill="currentColor">
    <path d="M12 .5C5.73.5.5 5.73.5 12c0 5.1 3.29 9.43 7.86 10.96.57.1.78-.25.78-.56v-2.02c-3.2.7-3.88-1.55-3.88-1.55-.52-1.3-1.28-1.65-1.28-1.65-1.05-.7.08-.68.08-.68 1.16.08 1.77 1.2 1.77 1.2 1.03 1.75 2.7 1.25 3.36.96.1-.74.4-1.25.72-1.53-2.55-.28-5.23-1.27-5.23-5.64 0-1.25.46-2.27 1.2-3.07-.12-.28-.52-1.42.12-2.96 0 0 .98-.31 3.2 1.18.92-.26 1.9-.4 2.88-.4s1.96.14 2.88.4c2.22-1.5 3.2-1.18 3.2-1.18.64 1.54.24 2.68.12 2.96.75.8 1.2 1.82 1.2 3.07 0 4.38-2.69 5.35-5.25 5.63.41.36.77 1.06.77 2.14v3.17c0 .31.21.67.79.56A11.5 11.5 0 0023.5 12C23.5 5.73 18.27.5 12 .5z"/>
</svg>
